<svg width="50" height="50" viewBox="0 0 50 50" fill="none" xmlns="http://www.w3.org/2000/svg">
<path d="M19.1406 1.5625C18.3636 1.5625 17.6184 1.87116 17.069 2.42059C16.5196 2.97001 16.2109 3.71519 16.2109 4.49219V16.2109H4.49219C3.71519 16.2109 2.97001 16.5196 2.42059 17.069C1.87116 17.6184 1.5625 18.3636 1.5625 19.1406V30.8594C1.5625 31.6364 1.87116 32.3816 2.42059 32.931C2.97001 33.4804 3.71519 33.7891 4.49219 33.7891H16.2109V45.5078C16.2109 46.2848 16.5196 47.03 17.069 47.5794C17.6184 48.1288 18.3636 48.4375 19.1406 48.4375H30.8594C31.6364 48.4375 32.3816 48.1288 32.931 47.5794C33.4804 47.03 33.7891 46.2848 33.7891 45.5078V33.7891H45.5078C46.2848 33.7891 47.03 33.4804 47.5794 32.931C48.1288 32.3816 48.4375 31.6364 48.4375 30.8594V19.1406C48.4375 18.3636 48.1288 17.6184 47.5794 17.069C47.03 16.5196 46.2848 16.2109 45.5078 16.2109H33.7891V4.49219C33.7891 3.71519 33.4804 2.97001 32.931 2.42059C32.3816 1.87116 31.6364 1.5625 30.8594 1.5625H19.1406Z" fill="#F24E1E"/>
</svg>
